<svg id="visual" viewBox="0 0 900 600" width="900" height="600" xmlns="http://www.w3.org/2000/svg" xmlns:xlink="http://www.w3.org/1999/xlink" version="1.1"><rect x="0" y="0" width="900" height="600" fill="#131b22"></rect><defs><linearGradient id="grad1_0" x1="33.3%" y1="100%" x2="100%" y2="0%"><stop offset="20%" stop-color="#131b22" stop-opacity="1"></stop><stop offset="80%" stop-color="#131b22" stop-opacity="1"></stop></linearGradient></defs><defs><linearGradient id="grad2_0" x1="0%" y1="100%" x2="66.7%" y2="0%"><stop offset="20%" stop-color="#131b22" stop-opacity="1"></stop><stop offset="80%" stop-color="#131b22" stop-opacity="1"></stop></linearGradient></defs><g transform="translate(900, 600)"><path d="M-486.7 0C-447.7 -48.4 -408.7 -96.8 -392.6 -162.6C-376.6 -228.5 -383.4 -311.8 -344.2 -344.2C-305 -376.6 -219.6 -358 -154.6 -373.2C-89.6 -388.5 -44.8 -437.6 0 -486.7L0 0Z" fill="#242832"></path></g><g transform="translate(0, 0)"><path d="M486.7 0C472.9 62.1 459.1 124.3 434.2 179.9C409.3 235.4 373.3 284.5 331.6 331.6C289.9 378.8 242.5 424.2 186.3 449.7C130 475.2 65 481 0 486.7L0 0Z" fill="#242832"></path></g></svg>