<svg id="visual" viewBox="0 0 900 600" width="900" height="600" xmlns="http://www.w3.org/2000/svg" xmlns:xlink="http://www.w3.org/1999/xlink" version="1.1"><rect x="0" y="0" width="900" height="600" fill="#2C303B"></rect><path d="M255 0L317.2 20C379.3 40 503.7 80 466 120C428.3 160 228.7 200 211.2 240C193.7 280 358.3 320 395.7 360C433 400 343 440 269.8 480C196.7 520 140.3 560 112.2 580L84 600L0 600L0 580C0 560 0 520 0 480C0 440 0 400 0 360C0 320 0 280 0 240C0 200 0 160 0 120C0 80 0 40 0 20L0 0Z" fill="#242832" stroke-linecap="round" stroke-linejoin="miter"></path></svg>