<svg id="visual" viewBox="0 0 900 600" width="900" height="600" xmlns="http://www.w3.org/2000/svg" xmlns:xlink="http://www.w3.org/1999/xlink" version="1.1"><rect x="0" y="0" width="900" height="600" fill="#3b414f"></rect><path d="M0 450L37.5 442C75 434 150 418 225 419.3C300 420.7 375 439.3 450 450C525 460.7 600 463.3 675 447.2C750 431 825 396 862.5 378.5L900 361L900 601L862.5 601C825 601 750 601 675 601C600 601 525 601 450 601C375 601 300 601 225 601C150 601 75 601 37.5 601L0 601Z" fill="#474f62" stroke-linecap="round" stroke-linejoin="miter"></path></svg>